<?xml version="1.0" encoding="UTF-8" standalone="no"?>
<svg
   xml:space="preserve"
   viewBox="0 0 80 80"
   width="80"
   height="80"
   version="1.1"
   id="svg172"
   sodipodi:docname="firefox.svg"
   inkscape:version="1.2.2 (b0a8486541, 2022-12-01)"
   xmlns:inkscape="http://www.inkscape.org/namespaces/inkscape"
   xmlns:sodipodi="http://sodipodi.sourceforge.net/DTD/sodipodi-0.dtd"
   xmlns="http://www.w3.org/2000/svg"
   xmlns:svg="http://www.w3.org/2000/svg"><defs
   id="defs176" /><sodipodi:namedview
   id="namedview174"
   pagecolor="#ffffff"
   bordercolor="#000000"
   borderopacity="0.25"
   inkscape:showpageshadow="2"
   inkscape:pageopacity="0.0"
   inkscape:pagecheckerboard="0"
   inkscape:deskcolor="#d1d1d1"
   showgrid="false"
   inkscape:zoom="1.704422"
   inkscape:cx="102.38075"
   inkscape:cy="103.55417"
   inkscape:window-width="1374"
   inkscape:window-height="741"
   inkscape:window-x="66"
   inkscape:window-y="32"
   inkscape:window-maximized="1"
   inkscape:current-layer="svg172" />
  <linearGradient
   id="a"
   x1="70.780899"
   x2="6.4418998"
   y1="69.612297"
   y2="7.5373001"
   gradientTransform="matrix(1,0,0,-1,-0.00940727,82.013282)"
   gradientUnits="userSpaceOnUse">
    <stop
   offset=".048"
   stop-color="#fff44f"
   id="stop2" />
    <stop
   offset=".111"
   stop-color="#ffe847"
   id="stop4" />
    <stop
   offset=".225"
   stop-color="#ffc830"
   id="stop6" />
    <stop
   offset=".368"
   stop-color="#ff980e"
   id="stop8" />
    <stop
   offset=".401"
   stop-color="#ff8b16"
   id="stop10" />
    <stop
   offset=".462"
   stop-color="#ff672a"
   id="stop12" />
    <stop
   offset=".534"
   stop-color="#ff3647"
   id="stop14" />
    <stop
   offset=".705"
   stop-color="#e31587"
   id="stop16" />
  </linearGradient>
  <path
   fill="url(#a)"
   d="m 75.910593,26.843282 c -1.68,-4.05 -5.1,-8.43 -7.78,-9.81 1.91,3.7 3.23,7.66 3.93,11.76 l 0.01,0.07 c -4.39,-10.93 -11.82,-15.33 -17.89,-24.9199998 -0.31,-0.49 -0.62,-0.98 -0.91,-1.48 -0.15,-0.26 -0.29,-0.53 -0.43,-0.8 -0.25,-0.49 -0.45,-1.00000001 -0.58,-1.53000001 0,-0.05 -0.04,-0.09 -0.09,-0.1 -0.02,-0.02 -0.04,-0.02 -0.07,-0.01 -0.01,0 -0.01,0.01 -0.02,0.01 -0.01,0 -0.02,0.01 -0.03,0.02 l 0.01,-0.03 c -9.74,5.70000001 -13.04,16.24999981 -13.34,21.52999981 -3.89,0.27 -7.6,1.7 -10.67,4.11 -0.32,-0.27 -0.65,-0.52 -1,-0.76 -0.88,-3.09 -0.92,-6.36 -0.11,-9.47 -3.58,1.73 -6.75,4.19 -9.33,7.21 h -0.02 c -1.54,-1.95 -1.43,-8.37 -1.34,-9.71 -0.45,0.18 -0.89,0.41 -1.29,0.69 -1.36,0.97 -2.62,2.05 -3.79,3.24 -1.3300002,1.35 -2.5400002,2.8 -3.6200002,4.35 v 0.01 -0.01 c -2.49,3.53 -4.26,7.52 -5.2,11.74 l -0.04,0.26 c -0.14,0.8 -0.27,1.61 -0.38,2.42 0,0.03 -0.01,0.06 -0.01,0.08 -0.34,1.76 -0.55,3.55 -0.63,5.34 v 0.2 c 0.02,21.41 17.3900002,38.74 38.7900002,38.73 18.85,-0.02 34.96,-13.59 38.16,-32.17 0.07,-0.5 0.12,-0.99 0.18,-1.5 0.8,-6.6 -0.07,-13.29 -2.51,-19.47 z m -44.67,30.34 c 0.18,0.09 0.35,0.18 0.54,0.26 l 0.03,0.02 c -0.2,-0.09 -0.39,-0.18 -0.57,-0.28 z m 40.83,-28.31 v -0.04 z"
   id="path19"
   style="fill:url(#a)" />
  <radialGradient
   id="b"
   cx="-7907.187"
   cy="8597.1211"
   r="80.796997"
   gradientTransform="matrix(1,0,0,-1,7974.9906,8606.0133)"
   gradientUnits="userSpaceOnUse">
    <stop
   offset=".129"
   stop-color="#ffbd4f"
   id="stop21" />
    <stop
   offset=".186"
   stop-color="#ffac31"
   id="stop23" />
    <stop
   offset=".247"
   stop-color="#ff9d17"
   id="stop25" />
    <stop
   offset=".283"
   stop-color="#ff980e"
   id="stop27" />
    <stop
   offset=".403"
   stop-color="#ff563b"
   id="stop29" />
    <stop
   offset=".467"
   stop-color="#ff3750"
   id="stop31" />
    <stop
   offset=".71"
   stop-color="#f5156c"
   id="stop33" />
    <stop
   offset=".782"
   stop-color="#eb0878"
   id="stop35" />
    <stop
   offset=".86"
   stop-color="#e50080"
   id="stop37" />
  </radialGradient>
  <path
   fill="url(#b)"
   d="m 75.910593,26.843282 c -1.68,-4.05 -5.1,-8.43 -7.78,-9.81 1.91,3.7 3.23,7.66 3.93,11.76 v 0.04 l 0.01,0.04 c 2.99,8.55 2.56,17.92 -1.21,26.16 -4.44,9.53 -15.19,19.3 -32.02,18.83 -18.19,-0.52 -34.2100002,-14.01 -37.2000002,-31.69 -0.55,-2.79 0,-4.2 0.27,-6.47 -0.37,1.76 -0.58,3.55 -0.62,5.35 v 0.2 c 0.02,21.41 17.3900002,38.74 38.7900002,38.72 18.85,-0.02 34.96,-13.59 38.16,-32.17 0.07,-0.5 0.12,-0.99 0.18,-1.5 0.8,-6.59 -0.07,-13.28 -2.51,-19.46 z"
   id="path40"
   style="fill:url(#b)" />
  <radialGradient
   id="c"
   cx="-7936.7109"
   cy="8564.0889"
   r="80.796997"
   gradientTransform="matrix(1,0,0,-1,7974.9906,8606.0133)"
   gradientUnits="userSpaceOnUse">
    <stop
   offset=".3"
   stop-color="#960e18"
   id="stop42" />
    <stop
   offset=".351"
   stop-color="#b11927"
   stop-opacity=".74"
   id="stop44" />
    <stop
   offset=".435"
   stop-color="#db293d"
   stop-opacity=".343"
   id="stop46" />
    <stop
   offset=".497"
   stop-color="#f5334b"
   stop-opacity=".094"
   id="stop48" />
    <stop
   offset=".53"
   stop-color="#ff3750"
   stop-opacity="0"
   id="stop50" />
  </radialGradient>
  <path
   fill="url(#c)"
   d="m 75.910593,26.843282 c -1.68,-4.05 -5.1,-8.43 -7.78,-9.81 1.91,3.7 3.23,7.66 3.93,11.76 v 0.04 l 0.01,0.04 c 2.99,8.55 2.56,17.92 -1.21,26.16 -4.44,9.53 -15.19,19.3 -32.02,18.83 -18.19,-0.52 -34.2100002,-14.01 -37.2000002,-31.69 -0.55,-2.79 0,-4.2 0.27,-6.47 -0.37,1.76 -0.58,3.55 -0.62,5.35 v 0.2 c 0.02,21.41 17.3900002,38.74 38.7900002,38.72 18.85,-0.02 34.96,-13.59 38.16,-32.17 0.07,-0.5 0.12,-0.99 0.18,-1.5 0.8,-6.59 -0.07,-13.28 -2.51,-19.46 z"
   id="path53"
   style="fill:url(#c)" />
  <radialGradient
   id="d"
   cx="-7926.9697"
   cy="8615.457"
   r="58.531799"
   gradientTransform="matrix(1,0,0,-1,7974.9906,8606.0133)"
   gradientUnits="userSpaceOnUse">
    <stop
   offset=".132"
   stop-color="#fff44f"
   id="stop55" />
    <stop
   offset=".252"
   stop-color="#ffdc3e"
   id="stop57" />
    <stop
   offset=".506"
   stop-color="#ff9d12"
   id="stop59" />
    <stop
   offset=".526"
   stop-color="#ff980e"
   id="stop61" />
  </radialGradient>
  <path
   fill="url(#d)"
   d="m 57.070593,31.403282 0.24,0.18 c -0.97,-1.73 -2.19,-3.31 -3.6,-4.69 -12.04,-12.06 -3.15,-26.12999981 -1.66,-26.84999981 l 0.01,-0.02 c -9.74,5.70000001 -13.04,16.24999981 -13.34,21.52999981 0.45,-0.03 0.9,-0.07 1.36,-0.07 7.04,0.01 13.53,3.8 16.99,9.92 z"
   id="path64"
   style="fill:url(#d)" />
  <radialGradient
   id="e"
   cx="-7945.6479"
   cy="8542.9844"
   r="38.471001"
   gradientTransform="matrix(1,0,0,-1,7974.9906,8606.0133)"
   gradientUnits="userSpaceOnUse">
    <stop
   offset=".353"
   stop-color="#3a8ee6"
   id="stop66" />
    <stop
   offset=".472"
   stop-color="#5c79f0"
   id="stop68" />
    <stop
   offset=".669"
   stop-color="#9059ff"
   id="stop70" />
    <stop
   offset="1"
   stop-color="#c139e6"
   id="stop72" />
  </radialGradient>
  <path
   fill="url(#e)"
   d="m 40.110593,33.803282 c -0.06,0.96 -3.47,4.29 -4.66,4.29 -11.02,0 -12.81,6.67 -12.81,6.67 0.49,5.61 4.4,10.24 9.13,12.68 0.22,0.11 0.43,0.21 0.65,0.31 0.38,0.17 0.76,0.32 1.14,0.47 1.62,0.57 3.32,0.9 5.04,0.97 19.32,0.91 23.06,-23.1 9.12,-30.07 3.29,-0.43 6.62,0.38 9.35,2.27 -3.47,-6.12 -9.95,-9.9 -16.98,-9.92 -0.46,0 -0.91,0.04 -1.36,0.07 -3.89,0.27 -7.6,1.7 -10.67,4.11 0.59,0.5 1.26,1.17 2.66,2.55 2.63,2.6 9.38,5.29 9.39,5.6 z"
   id="path75"
   style="fill:url(#e)" />
  <radialGradient
   id="f"
   cx="-8073.5933"
   cy="8509.3242"
   r="20.396999"
   gradientTransform="matrix(0.972,-0.235,-0.275,-1.138,10230.292,7821.6193)"
   gradientUnits="userSpaceOnUse">
    <stop
   offset=".206"
   stop-color="#9059ff"
   stop-opacity="0"
   id="stop77" />
    <stop
   offset=".278"
   stop-color="#8c4ff3"
   stop-opacity=".064"
   id="stop79" />
    <stop
   offset=".747"
   stop-color="#7716a8"
   stop-opacity=".45"
   id="stop81" />
    <stop
   offset=".975"
   stop-color="#6e008b"
   stop-opacity=".6"
   id="stop83" />
  </radialGradient>
  <path
   fill="url(#f)"
   d="m 40.110593,33.803282 c -0.06,0.96 -3.47,4.29 -4.66,4.29 -11.02,0 -12.81,6.67 -12.81,6.67 0.49,5.61 4.4,10.24 9.13,12.68 0.22,0.11 0.43,0.21 0.65,0.31 0.38,0.17 0.76,0.32 1.14,0.47 1.62,0.57 3.32,0.9 5.04,0.97 19.32,0.91 23.06,-23.1 9.12,-30.07 3.29,-0.43 6.62,0.38 9.35,2.27 -3.47,-6.12 -9.95,-9.9 -16.98,-9.92 -0.46,0 -0.91,0.04 -1.36,0.07 -3.89,0.27 -7.6,1.7 -10.67,4.11 0.59,0.5 1.26,1.17 2.66,2.55 2.63,2.6 9.38,5.29 9.39,5.6 z"
   id="path86"
   style="fill:url(#f)" />
  <radialGradient
   id="g"
   cx="-7937.731"
   cy="8600.4268"
   r="27.676001"
   gradientTransform="matrix(1,0,0,-1,7974.9906,8606.0133)"
   gradientUnits="userSpaceOnUse">
    <stop
   offset="0"
   stop-color="#ffe226"
   id="stop88" />
    <stop
   offset=".121"
   stop-color="#ffdb27"
   id="stop90" />
    <stop
   offset=".295"
   stop-color="#ffc82a"
   id="stop92" />
    <stop
   offset=".502"
   stop-color="#ffa930"
   id="stop94" />
    <stop
   offset=".732"
   stop-color="#ff7e37"
   id="stop96" />
    <stop
   offset=".792"
   stop-color="#ff7139"
   id="stop98" />
  </radialGradient>
  <path
   fill="url(#g)"
   d="m 26.250593,24.373282 c 0.31,0.2 0.57,0.37 0.8,0.53 -0.88,-3.09 -0.92,-6.36 -0.11,-9.47 -3.58,1.73 -6.75,4.19 -9.33,7.21 0.2,-0.01 5.82,-0.11 8.64,1.73 z"
   id="path101"
   style="fill:url(#g)" />
  <radialGradient
   id="h"
   cx="-7915.9771"
   cy="8617.9814"
   r="118.081"
   gradientTransform="matrix(1,0,0,-1,7974.9906,8606.0133)"
   gradientUnits="userSpaceOnUse">
    <stop
   offset=".113"
   stop-color="#fff44f"
   id="stop103" />
    <stop
   offset=".456"
   stop-color="#ff980e"
   id="stop105" />
    <stop
   offset=".622"
   stop-color="#ff5634"
   id="stop107" />
    <stop
   offset=".716"
   stop-color="#ff3647"
   id="stop109" />
    <stop
   offset=".904"
   stop-color="#e31587"
   id="stop111" />
  </radialGradient>
  <path
   fill="url(#h)"
   d="m 1.6405928,42.173282 c 2.99,17.67 19.0100002,31.17 37.1900002,31.68 16.83,0.48 27.58,-9.29 32.02,-18.83 3.76,-8.24 4.19,-17.61 1.21,-26.16 v -0.04 c 0,-0.03 -0.01,-0.05 0,-0.04 l 0.01,0.07 c 1.38,8.98 -3.19,17.67 -10.33,23.55 l -0.02,0.05 c -13.91,11.33 -27.22,6.83 -29.91,5 -0.19,-0.09 -0.38,-0.18 -0.56,-0.28 -8.11,-3.88 -11.46,-11.26 -10.74,-17.6 -3.93,0.06 -7.53,-2.21 -9.18,-5.78 4.33,-2.65 9.72,-2.87 14.25,-0.57 4.59,2.08 9.81,2.29 14.55,0.57 -0.01,-0.31 -6.76,-3 -9.39,-5.59 -1.41,-1.39 -2.07,-2.05 -2.66,-2.55 -0.32,-0.27 -0.65,-0.52 -1,-0.76 -0.23,-0.16 -0.49,-0.33 -0.8,-0.53 -2.83,-1.84 -8.45,-1.74 -8.64,-1.73 h -0.02 c -1.54,-1.95 -1.43,-8.37 -1.34,-9.71 -0.45,0.18 -0.89,0.41 -1.29,0.69 -1.36,0.97 -2.62,2.05 -3.79,3.25 -1.3300002,1.34 -2.5500002,2.79 -3.6400002,4.34 v 0.01 c -2.49,3.53 -4.26,7.52 -5.2,11.74 -0.02,0.08 -1.39000007,6.1 -0.72,9.22 z"
   id="path114"
   style="fill:url(#h)" />
  <radialGradient
   id="i"
   cx="-8095.2588"
   cy="10147.871"
   r="86.499001"
   gradientTransform="matrix(0.105,0.995,0.653,-0.069,-5727.4962,8749.5836)"
   gradientUnits="userSpaceOnUse">
    <stop
   offset="0"
   stop-color="#fff44f"
   id="stop116" />
    <stop
   offset=".06"
   stop-color="#ffe847"
   id="stop118" />
    <stop
   offset=".168"
   stop-color="#ffc830"
   id="stop120" />
    <stop
   offset=".304"
   stop-color="#ff980e"
   id="stop122" />
    <stop
   offset=".356"
   stop-color="#ff8b16"
   id="stop124" />
    <stop
   offset=".455"
   stop-color="#ff672a"
   id="stop126" />
    <stop
   offset=".57"
   stop-color="#ff3647"
   id="stop128" />
    <stop
   offset=".737"
   stop-color="#e31587"
   id="stop130" />
  </radialGradient>
  <path
   fill="url(#i)"
   d="m 53.710593,26.883282 c 1.41,1.39 2.63,2.97 3.6,4.7 0.21,0.16 0.41,0.32 0.58,0.48 8.79,8.1 4.18,19.55 3.84,20.37 7.14,-5.88 11.7,-14.58 10.33,-23.56 -4.38,-10.94 -11.81,-15.34 -17.88,-24.9299998 -0.31,-0.49 -0.62,-0.98 -0.91,-1.48 -0.15,-0.26 -0.29,-0.53 -0.43,-0.8 -0.25,-0.49 -0.45,-1.00000001 -0.58,-1.53000001 0,-0.05 -0.04,-0.09 -0.09,-0.1 -0.02,-0.02 -0.04,-0.02 -0.07,-0.01 -0.01,0 -0.01,0.01 -0.02,0.01 -0.01,0 -0.02,0.01 -0.03,0.02 -1.49,0.71 -10.38,14.77999981 1.66,26.82999981 z"
   id="path133"
   style="fill:url(#i)" />
  <radialGradient
   id="j"
   cx="-7938.3828"
   cy="8590.1758"
   r="73.720001"
   gradientTransform="matrix(1,0,0,-1,7974.9906,8606.0133)"
   gradientUnits="userSpaceOnUse">
    <stop
   offset=".137"
   stop-color="#fff44f"
   id="stop135" />
    <stop
   offset=".48"
   stop-color="#ff980e"
   id="stop137" />
    <stop
   offset=".592"
   stop-color="#ff5634"
   id="stop139" />
    <stop
   offset=".655"
   stop-color="#ff3647"
   id="stop141" />
    <stop
   offset=".904"
   stop-color="#e31587"
   id="stop143" />
  </radialGradient>
  <path
   fill="url(#j)"
   d="m 57.890593,32.053282 c -0.19,-0.17 -0.38,-0.33 -0.58,-0.48 l -0.24,-0.18 c -2.73,-1.89 -6.06,-2.7 -9.35,-2.27 13.94,6.97 10.2,30.97 -9.12,30.07 -1.72,-0.07 -3.42,-0.4 -5.04,-0.97 -0.38,-0.14 -0.76,-0.3 -1.14,-0.47 -0.22,-0.1 -0.44,-0.2 -0.65,-0.31 l 0.03,0.02 c 2.69,1.84 16,6.33 29.91,-5 l 0.02,-0.05 c 0.35,-0.81 4.95,-12.26 -3.84,-20.36 z"
   id="path146"
   style="fill:url(#j)" />
  <radialGradient
   id="k"
   cx="-7918.9229"
   cy="8585.8613"
   r="80.685997"
   gradientTransform="matrix(1,0,0,-1,7974.9906,8606.0133)"
   gradientUnits="userSpaceOnUse">
    <stop
   offset=".094"
   stop-color="#fff44f"
   id="stop148" />
    <stop
   offset=".231"
   stop-color="#ffe141"
   id="stop150" />
    <stop
   offset=".509"
   stop-color="#ffaf1e"
   id="stop152" />
    <stop
   offset=".626"
   stop-color="#ff980e"
   id="stop154" />
  </radialGradient>
  <path
   fill="url(#k)"
   d="m 22.640593,44.763282 c 0,0 1.79,-6.67 12.81,-6.67 1.19,0 4.6,-3.33 4.66,-4.29 -4.74,1.72 -9.96,1.51 -14.55,-0.57 -4.53,-2.3 -9.92,-2.08 -14.25,0.57 1.65,3.57 5.25,5.83 9.18,5.78 -0.72,6.34 2.63,13.72 10.74,17.6 0.18,0.09 0.35,0.18 0.54,0.26 -4.73,-2.44 -8.64,-7.07 -9.13,-12.68 z"
   id="path157"
   style="fill:url(#k)" />
  <linearGradient
   id="l"
   x1="70.008698"
   x2="15.2627"
   y1="69.943298"
   y2="15.1983"
   gradientTransform="matrix(1,0,0,-1,-0.00940727,82.013282)"
   gradientUnits="userSpaceOnUse">
    <stop
   offset=".167"
   stop-color="#fff44f"
   stop-opacity=".8"
   id="stop159" />
    <stop
   offset=".266"
   stop-color="#fff44f"
   stop-opacity=".634"
   id="stop161" />
    <stop
   offset=".489"
   stop-color="#fff44f"
   stop-opacity=".217"
   id="stop163" />
    <stop
   offset=".6"
   stop-color="#fff44f"
   stop-opacity="0"
   id="stop165" />
  </linearGradient>
  <path
   fill="url(#l)"
   d="m 75.910593,26.843282 c -1.68,-4.05 -5.1,-8.43 -7.78,-9.81 1.91,3.7 3.23,7.66 3.93,11.76 l 0.01,0.07 c -4.39,-10.93 -11.82,-15.33 -17.89,-24.9199998 -0.31,-0.49 -0.62,-0.98 -0.91,-1.48 -0.15,-0.26 -0.29,-0.53 -0.43,-0.8 -0.25,-0.49 -0.45,-1.00000001 -0.58,-1.53000001 0,-0.05 -0.04,-0.09 -0.09,-0.1 -0.02,-0.02 -0.04,-0.02 -0.07,-0.01 -0.01,0 -0.01,0.01 -0.02,0.01 -0.01,0 -0.02,0.01 -0.03,0.02 l 0.01,-0.03 c -9.74,5.70000001 -13.04,16.24999981 -13.34,21.52999981 0.45,-0.03 0.9,-0.07 1.36,-0.07 7.03,0.01 13.52,3.8 16.98,9.92 -2.73,-1.89 -6.06,-2.7 -9.35,-2.27 13.94,6.97 10.2,30.97 -9.12,30.07 -1.72,-0.07 -3.42,-0.4 -5.04,-0.97 -0.38,-0.14 -0.76,-0.3 -1.14,-0.47 -0.22,-0.1 -0.44,-0.2 -0.65,-0.31 l 0.03,0.02 c -0.19,-0.09 -0.38,-0.18 -0.56,-0.28 0.18,0.09 0.35,0.18 0.54,0.26 -4.73,-2.45 -8.64,-7.07 -9.13,-12.68 0,0 1.79,-6.67 12.81,-6.67 1.19,0 4.6,-3.33 4.66,-4.29 -0.01,-0.31 -6.76,-3 -9.39,-5.59 -1.41,-1.39 -2.07,-2.05 -2.66,-2.55 -0.32,-0.27 -0.65,-0.52 -1,-0.76 -0.88,-3.09 -0.92,-6.36 -0.11,-9.47 -3.58,1.73 -6.75,4.19 -9.33,7.21 h -0.02 c -1.54,-1.95 -1.43,-8.37 -1.34,-9.71 -0.45,0.18 -0.89,0.41 -1.29,0.69 -1.36,0.97 -2.62,2.05 -3.79,3.24 -1.3300002,1.35 -2.5400002,2.8 -3.6200002,4.35 v 0.01 -0.02 c -2.49,3.53 -4.26,7.52 -5.2,11.74 l -0.05,0.26 c -0.07,0.34 -0.4,2.07 -0.45,2.44 0,0.03 0,-0.03 0,0 -0.3,1.79 -0.49,3.59 -0.57,5.4 v 0.2 c 0.02,21.41 17.3900002,38.74 38.7900002,38.73 18.85,-0.02 34.96,-13.59 38.16,-32.17 0.07,-0.5 0.12,-0.99 0.18,-1.5 0.8,-6.6 -0.07,-13.29 -2.51,-19.47 z m -3.85,1.99 0.01,0.04 z"
   id="path168"
   style="fill:url(#l)" />
  
</svg>
