<?xml version="1.0" encoding="UTF-8" standalone="no"?>
<svg
   width="24"
   height="24"
   viewBox="0 0 24 24"
   fill="none"
   version="1.1"
   id="svg1"
   sodipodi:docname="ruff.svg"
   inkscape:version="1.4.2 (ebf0e940d0, 2025-05-08)"
   xmlns:inkscape="http://www.inkscape.org/namespaces/inkscape"
   xmlns:sodipodi="http://sodipodi.sourceforge.net/DTD/sodipodi-0.dtd"
   xmlns="http://www.w3.org/2000/svg"
   xmlns:svg="http://www.w3.org/2000/svg">
  <defs
     id="defs1" />
  <sodipodi:namedview
     id="namedview1"
     pagecolor="#ffffff"
     bordercolor="#000000"
     borderopacity="0.25"
     inkscape:showpageshadow="2"
     inkscape:pageopacity="0.0"
     inkscape:pagecheckerboard="0"
     inkscape:deskcolor="#d1d1d1"
     inkscape:zoom="16"
     inkscape:cx="-1.09375"
     inkscape:cy="10.6875"
     inkscape:window-width="1728"
     inkscape:window-height="911"
     inkscape:window-x="0"
     inkscape:window-y="0"
     inkscape:window-maximized="1"
     inkscape:current-layer="svg1">
    <sodipodi:guide
       position="0,24"
       orientation="0,24"
       id="guide1"
       inkscape:locked="false" />
    <sodipodi:guide
       position="24,24"
       orientation="24,0"
       id="guide2"
       inkscape:locked="false" />
    <sodipodi:guide
       position="24,0"
       orientation="0,-24"
       id="guide3"
       inkscape:locked="false" />
    <sodipodi:guide
       position="0,0"
       orientation="-24,0"
       id="guide4"
       inkscape:locked="false" />
  </sodipodi:namedview>
  <rect
     style="opacity:0.2"
     width="20"
     height="20"
     x="2"
     y="2.25"
     rx="1.5"
     ry="1.5"
     id="rect1" />
  <rect
     style="fill:#524971;fill-opacity:1"
     width="20"
     height="20"
     x="2"
     y="1.75"
     rx="1.5"
     ry="1.5"
     id="rect2" />
  <path
     style="opacity:0.2;fill:#ffffff"
     d="m 3.4999999,1.7499999 c -0.831,0 -1.5,0.669 -1.5,1.5000001 v 0.4999999 c 0,-0.831 0.669,-1.4999999 1.5,-1.4999999 H 20.499999 c 0.831,0 1.5,0.6689999 1.5,1.4999998 V 3.25 c 0,-0.8310001 -0.669,-1.5 -1.5,-1.5 z"
     id="path3" />
  <path
     fill-rule="evenodd"
     clip-rule="evenodd"
     d="m 10.760021,4.0042058 c -0.147248,0 -0.266652,0.1193278 -0.266652,0.2665267 v 0.79958 c 0,0.1471963 -0.11938,0.2665246 -0.266659,0.2665246 H 9.4800757 c -0.1472736,0 -0.2666531,0.1193284 -0.2666531,0.2665277 v 2.1322016 c 0,0.1472163 -0.1194105,0.2665359 -0.2666842,0.2665359 H 8.2001043 c -0.1472737,0 -0.2666583,0.1193196 -0.2666583,0.2665365 v 1.4658758 c 0,0.1472169 -0.1193898,0.2665364 -0.2666584,0.2665364 H 6.9201433 c -0.1472738,0 -0.2666584,0.11932 -0.2666584,0.266536 v 1.465876 c 0,0.147216 -0.1193898,0.266536 -0.2666635,0.266536 H 5.7201781 c -0.1472738,0 -0.2666584,0.11932 -0.2666584,0.266535 v 0.799583 c 0,0.147185 0.1193846,0.266502 0.2666584,0.266502 h 3.4665533 c 0.1472738,0 0.2666842,0.119349 0.2666842,0.266541 v 1.465905 c 0,0.147186 -0.1194104,0.266504 -0.2666842,0.266504 H 8.4400922 c -0.1472634,0 -0.2666532,0.119348 -0.2666532,0.26654 v 1.465905 c 0,0.147186 -0.1193846,0.266504 -0.2666583,0.266504 H 7.1601363 c -0.1472738,0 -0.2666636,0.119348 -0.2666636,0.266539 v 2.132198 c 0,0.147217 0.1193898,0.26654 0.2666636,0.26654 h 2.1332719 c 0.1472789,0 0.2666532,-0.119323 0.2666532,-0.26654 V 18.663169 H 10.62671 c 0.147274,0 0.266653,-0.119349 0.266653,-0.266534 v -0.799579 c 0,-0.14719 0.119375,-0.266539 0.266654,-0.266539 h 0.746634 c 0.147279,0 0.266683,-0.119318 0.266683,-0.266503 v -0.799583 c 0,-0.147217 0.11938,-0.266534 0.266654,-0.266534 h 0.746639 c 0.147274,0 0.266654,-0.119323 0.266654,-0.26654 V 14.93178 c 0,-0.147186 0.119405,-0.266509 0.266653,-0.266509 h 0.746665 c 0.147274,0 0.266653,-0.119349 0.266653,-0.266534 v -0.799578 c 0,-0.147191 0.119379,-0.26654 0.266653,-0.26654 h 0.74664 c 0.147273,0 0.266683,-0.119317 0.266683,-0.266503 v -0.799582 c 0,-0.147216 0.119375,-0.266535 0.266654,-0.266535 h 0.746634 c 0.147279,0 0.266653,-0.11932 0.266653,-0.266536 V 9.6012614 c 0,-0.1471876 -0.119374,-0.2665365 -0.266653,-0.2665365 h -0.773299 c -0.147274,0 -0.26668,-0.1193196 -0.26668,-0.2665065 V 8.2686388 c 0,-0.1472169 0.119406,-0.2665365 0.26668,-0.2665365 h 0.746638 c 0.147274,0 0.266654,-0.1193196 0.266654,-0.2665359 V 6.9359869 c 0,-0.147187 0.119379,-0.2665159 0.266653,-0.2665159 h 0.746665 c 0.147248,0 0.266653,-0.1193283 0.266653,-0.2665272 V 4.2707325 c 0,-0.1471984 -0.119405,-0.2665267 -0.266653,-0.2665267 z M 9.7733942,15.331569 c -0.1472789,0 -0.2666583,0.119348 -0.2666583,0.26654 v 1.465905 c 0,0.147186 -0.1193742,0.266504 -0.2666531,0.266504 H 8.4934177 c -0.1472583,0 -0.266648,0.119348 -0.266648,0.266539 v 0.799578 c 0,0.147185 0.1193897,0.266534 0.266648,0.266534 h 1.0666437 v -1.066112 c 0,-0.147191 0.1193795,-0.266539 0.2666532,-0.266539 h 0.7466704 c 0.147243,0 0.266653,-0.119318 0.266653,-0.266504 v -0.799582 c 0,-0.147217 0.11938,-0.266535 0.266653,-0.266535 h 0.746634 c 0.147279,0 0.266654,-0.119322 0.266654,-0.266539 V 14.93178 c 0,-0.147186 0.11941,-0.266509 0.266683,-0.266509 h 0.74664 c 0.147274,0 0.266653,-0.119348 0.266653,-0.266534 V 13.59916 c 0,-0.147192 0.119379,-0.266541 0.266653,-0.266541 h 0.74664 c 0.147273,0 0.266678,-0.119317 0.266678,-0.266502 v -0.799583 c 0,-0.147215 0.11938,-0.266535 0.266654,-0.266535 h 0.746639 c 0.147274,0 0.266653,-0.11932 0.266653,-0.266536 v -0.79958 c 0,-0.147187 -0.119379,-0.266507 -0.266653,-0.266507 h -2.053271 c -0.147278,0 -0.266658,-0.119348 -0.266658,-0.266536 V 9.6012614 c 0,-0.1471876 0.11938,-0.2665365 0.266658,-0.2665365 h 0.746634 c 0.147274,0 0.266685,-0.1193196 0.266685,-0.2665065 V 8.2686388 c 0,-0.1472169 0.119379,-0.2665365 0.266653,-0.2665365 h 0.746638 c 0.147274,0 0.266654,-0.1193196 0.266654,-0.2665359 V 6.9359869 c 0,-0.147187 0.119374,-0.2665159 0.266653,-0.2665159 h 0.746665 c 0.147274,0 0.266653,-0.1193283 0.266653,-0.2665272 v -0.799579 c 0,-0.1471993 -0.119379,-0.2665277 -0.266653,-0.2665277 h -6.133157 c -0.147274,0 -0.266685,0.1193284 -0.266685,0.2665277 v 2.1322016 c 0,0.1472163 -0.119374,0.2665359 -0.266653,0.2665359 H 9.5334013 c -0.1472738,0 -0.2666533,0.1193196 -0.2666533,0.2665365 v 1.4658758 c 0,0.1472169 -0.1194104,0.2665364 -0.2666532,0.2665364 H 8.253435 c -0.1472686,0 -0.2666584,0.11932 -0.2666584,0.266536 v 1.465876 c 0,0.147217 0.1193898,0.266536 0.2666584,0.266536 h 2.266593 c 0.147274,0 0.266654,0.11932 0.266654,0.266535 v 2.798531 c 0,0.147187 -0.11938,0.266504 -0.266654,0.266504 z"
     fill="#d7ff64"
     id="path1"
     style="stroke-width:0.0293963" />
</svg>
