<?xml version="1.0" encoding="UTF-8" standalone="no"?>
<svg
   width="24"
   height="24"
   version="1.1"
   id="svg4"
   sodipodi:docname="rustup.svg"
   inkscape:version="1.4.2 (ebf0e940d0, 2025-05-08)"
   xmlns:inkscape="http://www.inkscape.org/namespaces/inkscape"
   xmlns:sodipodi="http://sodipodi.sourceforge.net/DTD/sodipodi-0.dtd"
   xmlns="http://www.w3.org/2000/svg"
   xmlns:svg="http://www.w3.org/2000/svg">
  <defs
     id="defs4" />
  <sodipodi:namedview
     id="namedview4"
     pagecolor="#ffffff"
     bordercolor="#000000"
     borderopacity="0.25"
     inkscape:showpageshadow="2"
     inkscape:pageopacity="0.0"
     inkscape:pagecheckerboard="0"
     inkscape:deskcolor="#d1d1d1"
     inkscape:zoom="21.095352"
     inkscape:cx="7.84533"
     inkscape:cy="13.604892"
     inkscape:window-width="1728"
     inkscape:window-height="911"
     inkscape:window-x="0"
     inkscape:window-y="0"
     inkscape:window-maximized="1"
     inkscape:current-layer="svg4" />
  <circle
     style="opacity:0.2"
     cx="12"
     cy="12.5"
     r="10"
     id="circle1" />
  <circle
     style="fill:#e4e4e4"
     cx="12"
     cy="12"
     r="10"
     id="circle2" />
  <path
     style="fill:#ffffff;opacity:0.2"
     d="M 12 2 A 10 10 0 0 0 2 12 A 10 10 0 0 0 2.0176 12.25 A 10 10 0 0 1 12 2.5 A 10 10 0 0 1 21.99 12.125 A 10 10 0 0 0 22 12 A 10 10 0 0 0 12 2 z"
     id="path4" />
  <g
     id="g6"
     transform="matrix(1.0804417,0,0,1.0804417,-0.96530029,-0.97204129)">
    <path
       id="path1"
       style="fill:#222222;fill-opacity:1;stroke-width:0.143564"
       d="m 11.984036,4.4997912 a 0.21536731,0.21536731 0 0 0 -0.166481,0.1009517 l -0.394952,0.6375892 c -0.05784,0.0049 -0.116142,0.011359 -0.173565,0.017711 h -0.0018 l -0.511843,-0.547264 a 0.21536731,0.21536731 0 0 0 -0.357758,0.070843 l -0.26212,0.701348 h -0.0018 c -0.0557,0.016157 -0.111377,0.033822 -0.1664818,0.051361 L 9.3380413,5.0931034 A 0.21536731,0.21536731 0 0 0 8.9997648,5.2330188 l -0.1204334,0.742083 c -0.051054,0.026565 -0.1020252,0.055426 -0.152313,0.083241 h -0.00177 L 8.0398389,5.7466322 A 0.21536731,0.21536731 0 0 0 7.7369841,5.9503066 l 0.024795,0.7544805 C 7.7179001,6.7399741 7.6754701,6.7748101 7.6324902,6.811052 L 6.8974917,6.637486 A 0.21536731,0.21536731 0 0 0 6.6371428,6.8978349 l 0.173566,0.7349987 c -0.035922,0.042608 -0.071381,0.085797 -0.106265,0.1292889 L 5.9499633,7.7373273 A 0.21536731,0.21536731 0 0 0 5.746289,8.0401822 l 0.3117103,0.6871794 c -0.028029,0.050657 -0.056481,0.1008789 -0.083241,0.152313 L 5.2326755,9.000108 A 0.21536731,0.21536731 0 0 0 5.0927601,9.3383845 l 0.4392281,0.6092519 c -0.017499,0.05499 -0.03524,0.1108996 -0.051361,0.1664816 -1.568e-4,5.4e-4 1.566e-4,0.0012 0,0.0018 l -0.7013481,0.26212 a 0.21536731,0.21536731 0 0 0 -0.070843,0.357758 l 0.547264,0.513613 c -0.00641,0.05786 -0.012771,0.115287 -0.017711,0.173566 l -0.6375892,0.394951 a 0.21536731,0.21536731 0 0 0 0,0.364843 l 0.6375892,0.394951 c 0.0049,0.05766 0.011374,0.116322 0.017711,0.173566 6.4e-5,5.79e-4 -6.41e-5,0.0012 0,0.0018 l -0.547264,0.511842 a 0.21536731,0.21536731 0 0 0 0.070843,0.357759 l 0.7013481,0.26212 c 1.584e-4,5.47e-4 -1.586e-4,0.0012 0,0.0018 0.016235,0.05598 0.033729,0.111101 0.051361,0.166482 l -0.4392281,0.609165 a 0.21536731,0.21536731 0 0 0 0.1399154,0.338276 l 0.7438541,0.120433 c 0.026623,0.05114 0.053593,0.101942 0.08147,0.152314 l -0.3117103,0.685408 a 0.21536731,0.21536731 0 0 0 0.2036743,0.304626 l 0.7544805,-0.0248 c 0.034934,0.04355 0.070291,0.08662 0.106265,0.129288 l -0.173566,0.734999 a 0.21536731,0.21536731 0 0 0 0.2603489,0.260349 l 0.7349986,-0.173566 c 0.042652,0.03596 0.085752,0.07135 0.1292889,0.106265 l -0.024795,0.754481 a 0.21536731,0.21536731 0 0 0 0.3028548,0.203674 L 8.7270188,17.94229 c 0.050375,0.02788 0.1011701,0.05485 0.152313,0.08147 l 0.1204334,0.742084 a 0.21536731,0.21536731 0 0 0 0.3382765,0.141686 l 0.6092519,-0.439229 c 0.055281,0.0176 0.1106014,0.03516 0.1664814,0.05136 h 0.0018 l 0.26212,0.701348 a 0.21536731,0.21536731 0 0 0 0.357758,0.07084 l 0.513614,-0.547265 c 0.05767,0.0064 0.11547,0.01278 0.173565,0.01771 l 0.394952,0.637589 a 0.21536731,0.21536731 0 0 0 0.364842,0 l 0.394952,-0.637589 c 0.05809,-0.0049 0.11589,-0.01132 0.173565,-0.01771 l 0.513614,0.547265 a 0.21536731,0.21536731 0 0 0 0.357758,-0.07084 l 0.26212,-0.701348 c 5.47e-4,-1.59e-4 0.0012,1.59e-4 0.0018,0 0.05588,-0.0162 0.1112,-0.03377 0.166482,-0.05136 l 0.609252,0.439229 a 0.21536731,0.21536731 0 0 0 0.338276,-0.141686 l 0.120434,-0.742084 c 0.0511,-0.0266 0.101979,-0.05362 0.152313,-0.08147 l 0.685408,0.311711 a 0.21536731,0.21536731 0 0 0 0.304626,-0.203674 l -0.0248,-0.754481 c 0.04354,-0.03492 0.08664,-0.07031 0.129289,-0.106265 l 0.734998,0.173566 a 0.21536731,0.21536731 0 0 0 0.260349,-0.260349 l -0.173566,-0.734999 c 0.03597,-0.04267 0.07133,-0.08574 0.106265,-0.129288 l 0.754481,0.0248 a 0.21536731,0.21536731 0 0 0 0.203674,-0.304626 l -0.311711,-0.685408 c 0.02789,-0.05039 0.05484,-0.101158 0.08147,-0.152314 l 0.742084,-0.120433 a 0.21536731,0.21536731 0 0 0 0.141686,-0.338276 l -0.439229,-0.609252 c 0.01763,-0.05538 0.03513,-0.110502 0.05136,-0.166482 1.59e-4,-5.47e-4 -1.59e-4,-0.0012 0,-0.0018 l 0.701349,-0.26212 a 0.21536731,0.21536731 0 0 0 0.07084,-0.357759 l -0.547264,-0.511842 c 6.4e-5,-5.77e-4 -6.5e-5,-0.0012 0,-0.0018 0.0063,-0.05724 0.01281,-0.115911 0.01771,-0.173566 L 19.3996,12.182682 a 0.21536731,0.21536731 0 0 0 0,-0.364843 l -0.637589,-0.394951 c -0.0049,-0.05827 -0.0113,-0.115719 -0.01771,-0.173566 l 0.547264,-0.513613 a 0.21536731,0.21536731 0 0 0 -0.07084,-0.357758 l -0.701349,-0.26212 c -1.56e-4,-5.4e-4 1.57e-4,-0.0012 0,-0.0018 -0.01611,-0.05552 -0.03387,-0.111548 -0.05136,-0.1664816 L 18.907192,9.3383845 A 0.21536731,0.21536731 0 0 0 18.765506,9.000108 L 18.025193,8.8796746 c -0.02672,-0.051335 -0.05526,-0.1017522 -0.08324,-0.152313 l 0.31171,-0.6871794 A 0.21536731,0.21536731 0 0 0 18.049989,7.7373273 l -0.754481,0.024795 c -0.03478,-0.043348 -0.07046,-0.086818 -0.106265,-0.1292889 L 17.362809,6.8978349 A 0.21536731,0.21536731 0 0 0 17.10246,6.637486 L 16.367462,6.811052 C 16.324622,6.774934 16.281902,6.739857 16.238173,6.7047871 l 0.0248,-0.7544805 A 0.21536731,0.21536731 0 0 0 15.958342,5.7466322 l -0.685408,0.3117103 c -0.05056,-0.027981 -0.100983,-0.054752 -0.152313,-0.08147 L 15.000187,5.2330188 A 0.21536731,0.21536731 0 0 0 14.661911,5.0931034 l -0.609252,0.4392281 c -0.05503,-0.017522 -0.110857,-0.035219 -0.166482,-0.051361 h -0.0018 l -0.26212,-0.701348 a 0.21536731,0.21536731 0 0 0 -0.357758,-0.070843 l -0.511843,0.547264 c -5.79e-4,-6.43e-5 -0.0012,6.42e-5 -0.0018,0 -0.05741,-0.00635 -0.115738,-0.012806 -0.173565,-0.017711 L 12.182397,4.6007429 A 0.21536731,0.21536731 0 0 0 11.984036,4.4997912 Z m 0.0053,1.3176843 a 0.44504766,0.4464833 0 0 1 0.433915,0.4463124 0.44648335,0.44648335 0 0 1 -0.892624,0 0.4464833,0.4464833 0 0 1 0.458709,-0.4463124 z m -1.009516,0.7349986 0.688951,0.72083 c 0.155049,0.1622263 0.411603,0.1688802 0.57383,0.012397 L 13.01125,6.5524736 a 5.4941852,5.4941852 0 0 1 3.761776,2.6778745 l -0.526011,1.1901659 c -0.09044,0.205296 0.0016,0.446529 0.205445,0.538409 l 1.01483,0.448083 a 5.4941852,5.4941852 0 0 1 0.01063,0.952841 h -0.563194 c -0.056,0 -0.0797,0.03754 -0.0797,0.0921 v 0.258578 c 0,0.60871 -0.343189,0.742713 -0.644673,0.775734 -0.287127,0.03302 -0.604476,-0.120623 -0.644674,-0.295771 -0.169404,-0.951827 -0.451119,-1.153689 -0.896167,-1.505419 0.552721,-0.350296 1.128179,-0.868346 1.128179,-1.560323 0,-0.7479667 -0.513657,-1.2193762 -0.862516,-1.4505144 C 14.424184,8.3512113 13.882071,8.2863625 13.735635,8.2863625 H 7.9070078 A 5.4941852,5.4941852 0 0 1 10.979833,6.5524741 Z M 6.6672511,9.8573114 a 0.4464833,0.4464833 0 0 1 0.4321438,0.4463116 0.4464833,0.4464833 0 0 1 -0.8926248,0 0.4464833,0.4464833 0 0 1 0.460481,-0.4463116 z m 10.6441969,0.019482 a 0.4464833,0.4464833 0 0 1 0.433915,0.4463116 0.44648335,0.44648335 0 0 1 -0.892625,0 0.4464833,0.4464833 0 0 1 0.45871,-0.4463116 z M 7.5085146,9.9494075 H 8.2860192 V 13.457919 H 6.7150703 A 5.4941852,5.4941852 0 0 1 6.5379622,11.359188 l 0.961697,-0.426831 c 0.2052963,-0.09188 0.2973262,-0.331341 0.2054454,-0.536637 z m 3.2463914,0.037193 h 1.854322 c 0.09619,0 0.674782,0.1104945 0.674782,0.5454915 0,0.360346 -0.445068,0.488819 -0.811156,0.488819 h -1.719719 z m 0,2.5202475 h 1.420407 c 0.129207,0 0.693689,0.03733 0.873143,0.758022 0.05599,0.221088 0.18096,0.941319 0.265662,1.172456 0.0847,0.258416 0.427357,0.775734 0.793445,0.775734 h 2.316573 a 5.4941852,5.4941852 0 0 1 -0.5083,0.587998 l -0.942215,-0.201903 c -0.219652,-0.04738 -0.436129,0.09383 -0.483505,0.313482 l -0.224927,1.044938 A 5.4941852,5.4941852 0 0 1 9.6851732,16.936321 L 9.460246,15.891384 C 9.4128659,15.671732 9.1981645,15.530526 8.9785119,15.577902 L 8.0540076,15.776263 A 5.4941852,5.4941852 0 0 1 7.5775868,15.21306 h 4.4896902 c 0.05025,0 0.08501,-0.0075 0.08501,-0.0549 v -1.588659 c 0,-0.04594 -0.03477,-0.05668 -0.08501,-0.05668 h -1.314142 z m -2.0703936,3.636029 a 0.4464833,0.4464833 0 0 1 0.4321438,0.446313 0.44648353,0.44648353 0 0 1 -0.8926248,0 0.4464833,0.4464833 0 0 1 0.460481,-0.446313 z m 6.6096736,0.02125 a 0.4464833,0.4464833 0 0 1 0.433915,0.446312 0.44648335,0.44648335 0 0 1 -0.892624,0 0.4464833,0.4464833 0 0 1 0.458709,-0.446312 z" />
    <path
       id="path1-6"
       style="fill:#222222;fill-opacity:0.266978;stroke-width:0.143564"
       d="M 11.984033,4.667384 A 0.21536731,0.21536731 0 0 0 11.817552,4.768336 L 11.4226,5.405925 c -0.05784,0.0049 -0.116142,0.01136 -0.173565,0.01771 h -0.0018 L 10.735392,4.876372 a 0.21536731,0.21536731 0 0 0 -0.357758,0.07084 l -0.26212,0.701348 h -0.0018 c -0.0557,0.01616 -0.111377,0.03382 -0.166482,0.05136 L 9.338038,5.260692 A 0.21536731,0.21536731 0 0 0 8.999762,5.400608 L 8.879328,6.142691 c -0.05105,0.02656 -0.102025,0.05543 -0.152313,0.08324 h -0.0018 L 8.039806,5.91422 A 0.21536731,0.21536731 0 0 0 7.736951,6.117894 l 0.0248,0.754481 C 7.717871,6.907565 7.675441,6.942395 7.632462,6.97864 L 6.897489,6.805079 A 0.21536731,0.21536731 0 0 0 6.63714,7.065428 l 0.173566,0.734998 c -0.03592,0.04261 -0.07138,0.0858 -0.106265,0.129289 L 5.94996,7.904925 A 0.21536731,0.21536731 0 0 0 5.746286,8.20778 l 0.31171,0.687179 c -0.02803,0.05066 -0.05648,0.100879 -0.08324,0.152313 L 5.232674,9.167706 A 0.21536731,0.21536731 0 0 0 5.092758,9.505982 l 0.439228,0.609253 c -0.0175,0.05499 -0.03524,0.110901 -0.05136,0.166483 -1.57e-4,5.4e-4 1.57e-4,0.0012 0,0.0018 l -0.701348,0.26212 a 0.21536731,0.21536731 0 0 0 -0.07084,0.357758 l 0.547264,0.513613 c -0.0064,0.05786 -0.01277,0.115287 -0.01771,0.173566 l -0.637589,0.394951 a 0.21536731,0.21536731 0 0 0 0,0.364843 l 0.637589,0.394951 c 0.0049,0.05766 0.01137,0.116322 0.01771,0.173566 6.4e-5,5.79e-4 -6.4e-5,0.0012 0,0.0018 l -0.547264,0.511842 a 0.21536731,0.21536731 0 0 0 0.07084,0.357759 l 0.701348,0.26212 c 1.59e-4,5.47e-4 -1.58e-4,0.0012 0,0.0018 0.01624,0.05598 0.03373,0.111101 0.05136,0.166482 l -0.439228,0.609165 a 0.21536731,0.21536731 0 0 0 0.139916,0.338276 l 0.743854,0.120433 c 0.02662,0.05114 0.05359,0.101942 0.08147,0.152314 l -0.311711,0.685408 a 0.21536731,0.21536731 0 0 0 0.203675,0.304626 l 0.75448,-0.0248 c 0.03493,0.04355 0.07029,0.08662 0.106265,0.129288 l -0.173566,0.734999 a 0.21536731,0.21536731 0 0 0 0.260349,0.260349 l 0.734999,-0.173566 c 0.04265,0.03596 0.08575,0.07135 0.129288,0.106265 l -0.0248,0.754481 a 0.21536731,0.21536731 0 0 0 0.302855,0.203674 l 0.68718,-0.311711 c 0.05038,0.02788 0.10117,0.05485 0.152313,0.08147 l 0.120433,0.742084 a 0.21536731,0.21536731 0 0 0 0.338277,0.141686 l 0.609252,-0.439229 c 0.05528,0.0176 0.110601,0.03516 0.166481,0.05136 h 0.0018 l 0.26212,0.701348 a 0.21536731,0.21536731 0 0 0 0.357758,0.07084 l 0.513614,-0.547265 c 0.05767,0.0064 0.11547,0.01278 0.173565,0.01771 l 0.394952,0.637589 a 0.21536731,0.21536731 0 0 0 0.364842,0 l 0.394952,-0.637589 c 0.05809,-0.0049 0.11589,-0.01132 0.173565,-0.01771 l 0.513614,0.547265 a 0.21536731,0.21536731 0 0 0 0.357758,-0.07084 l 0.26212,-0.701348 c 5.47e-4,-1.59e-4 0.0012,1.59e-4 0.0018,0 0.05588,-0.0162 0.1112,-0.03377 0.166482,-0.05136 l 0.609252,0.439229 a 0.21536731,0.21536731 0 0 0 0.338276,-0.141686 l 0.120434,-0.742084 c 0.0511,-0.0266 0.101979,-0.05362 0.152313,-0.08147 l 0.685408,0.311711 a 0.21536731,0.21536731 0 0 0 0.304626,-0.203674 l -0.0248,-0.754481 c 0.04354,-0.03492 0.08664,-0.07031 0.129289,-0.106265 l 0.734998,0.173566 a 0.21536731,0.21536731 0 0 0 0.260353,-0.260354 l -0.173566,-0.734999 c 0.03597,-0.04267 0.07133,-0.08574 0.106265,-0.129288 l 0.754481,0.0248 a 0.21536731,0.21536731 0 0 0 0.203674,-0.304626 l -0.311711,-0.685408 c 0.02789,-0.05039 0.05484,-0.101158 0.08147,-0.152314 l 0.742084,-0.120433 a 0.21536731,0.21536731 0 0 0 0.141686,-0.338276 l -0.439229,-0.609252 c 0.01763,-0.05538 0.03513,-0.110502 0.05136,-0.166482 1.59e-4,-5.47e-4 -1.59e-4,-0.0012 0,-0.0018 l 0.701349,-0.26212 a 0.21536731,0.21536731 0 0 0 0.07084,-0.357759 l -0.547264,-0.511842 c 6.4e-5,-5.77e-4 -6.5e-5,-0.0012 0,-0.0018 0.0063,-0.05724 0.01281,-0.115911 0.01771,-0.173566 l 0.637589,-0.394951 a 0.21536731,0.21536731 0 0 0 0,-0.364843 l -0.637589,-0.394951 c -0.0049,-0.05827 -0.0113,-0.115719 -0.01771,-0.173566 l 0.547264,-0.513613 a 0.21536731,0.21536731 0 0 0 -0.07084,-0.357758 l -0.701349,-0.26212 c -1.56e-4,-5.4e-4 1.57e-4,-0.0012 0,-0.0018 -0.01611,-0.05552 -0.03387,-0.111548 -0.05136,-0.166483 L 18.907189,9.505977 A 0.21536731,0.21536731 0 0 0 18.765503,9.167701 L 18.02519,9.047267 C 17.99847,8.995927 17.96993,8.945515 17.94195,8.894954 L 18.25366,8.207775 A 0.21536731,0.21536731 0 0 0 18.049986,7.90492 L 17.295505,7.92971 C 17.260725,7.88636 17.225045,7.84289 17.18924,7.800421 L 17.362806,7.065423 A 0.21536731,0.21536731 0 0 0 17.102457,6.805074 L 16.367459,6.97864 C 16.324619,6.94252 16.281899,6.90744 16.23817,6.872375 l 0.0248,-0.754481 A 0.21536731,0.21536731 0 0 0 15.958339,5.914225 l -0.685408,0.31171 c -0.05056,-0.02798 -0.100983,-0.05475 -0.152313,-0.08147 L 15.000184,5.400612 A 0.21536731,0.21536731 0 0 0 14.661908,5.260696 l -0.609252,0.439228 c -0.05503,-0.01752 -0.110857,-0.03522 -0.166482,-0.05136 h -0.0018 L 13.622254,4.947216 A 0.21536731,0.21536731 0 0 0 13.264496,4.876376 L 12.752653,5.42364 c -5.79e-4,-6.4e-5 -0.0012,6.4e-5 -0.0018,0 -0.05741,-0.0064 -0.115738,-0.01281 -0.173565,-0.01771 L 12.182394,4.768341 A 0.21536731,0.21536731 0 0 0 11.984033,4.667389 Z m 0.0053,1.317684 a 0.44504766,0.4464833 0 0 1 0.433915,0.446313 0.44648335,0.44648335 0 0 1 -0.892624,0 0.4464833,0.4464833 0 0 1 0.458709,-0.446313 z m -1.009516,0.734999 0.688951,0.72083 c 0.155049,0.162226 0.411603,0.16888 0.57383,0.0124 l 0.768649,-0.733228 a 5.4941852,5.4941852 0 0 1 3.761776,2.677875 l -0.526011,1.190168 c -0.09044,0.205296 0.0016,0.446529 0.205445,0.538409 l 1.01483,0.448083 a 5.4941852,5.4941852 0 0 1 0.01063,0.952841 h -0.563194 c -0.056,0 -0.0797,0.03754 -0.0797,0.0921 v 0.258578 c 0,0.60871 -0.343189,0.742713 -0.644673,0.775734 -0.287127,0.03302 -0.604476,-0.120623 -0.644674,-0.295771 -0.169404,-0.95183 -0.451119,-1.153692 -0.896167,-1.505422 0.552721,-0.350296 1.128179,-0.868346 1.128179,-1.560323 0,-0.747969 -0.513657,-1.219378 -0.862516,-1.450517 -0.490991,-0.32302 -1.033104,-0.387869 -1.17954,-0.387869 H 7.907005 A 5.4941852,5.4941852 0 0 1 10.97983,6.720067 Z m -4.312569,3.304837 a 0.4464833,0.4464833 0 0 1 0.432144,0.446314 0.4464833,0.4464833 0 0 1 -0.892625,0 0.4464833,0.4464833 0 0 1 0.460481,-0.446314 z m 10.644197,0.01948 a 0.4464833,0.4464833 0 0 1 0.433915,0.446314 0.44648335,0.44648335 0 0 1 -0.892625,0 0.4464833,0.4464833 0 0 1 0.45871,-0.446314 z m -9.802933,0.07261 h 0.777504 v 3.508519 H 6.715067 a 5.4941852,5.4941852 0 0 1 -0.177108,-2.09873 l 0.961697,-0.426831 c 0.205296,-0.09188 0.297326,-0.331341 0.205446,-0.536637 z m 3.246391,0.03719 h 1.854322 c 0.09619,0 0.674782,0.110495 0.674782,0.545492 0,0.360346 -0.445068,0.488819 -0.811156,0.488819 h -1.719719 z m 0,2.520248 h 1.420407 c 0.129207,0 0.693689,0.03733 0.873143,0.758022 0.05599,0.221088 0.18096,0.941319 0.265662,1.172456 0.0847,0.258416 0.427357,0.775734 0.793445,0.775734 h 2.316573 a 5.4941852,5.4941852 0 0 1 -0.5083,0.587998 L 14.973618,15.76674 c -0.219652,-0.04738 -0.436129,0.09383 -0.483505,0.313482 L 14.265186,17.12516 A 5.4941852,5.4941852 0 0 1 9.68517,17.103911 L 9.460243,16.058979 C 9.412863,15.839327 9.198162,15.698121 8.978509,15.745497 L 8.054005,15.943858 A 5.4941852,5.4941852 0 0 1 7.577584,15.380655 h 4.48969 c 0.05025,0 0.08501,-0.0075 0.08501,-0.0549 v -1.588659 c 0,-0.04594 -0.03477,-0.05668 -0.08501,-0.05668 H 10.753132 Z M 8.684509,16.31047 a 0.4464833,0.4464833 0 0 1 0.432144,0.446313 0.44648353,0.44648353 0 0 1 -0.892625,0 0.4464833,0.4464833 0 0 1 0.460481,-0.446313 z m 6.609674,0.02125 a 0.4464833,0.4464833 0 0 1 0.433915,0.446312 0.44648335,0.44648335 0 0 1 -0.892624,0 0.4464833,0.4464833 0 0 1 0.458709,-0.446312 z" />
  </g>
</svg>
