<?xml version="1.0" encoding="UTF-8" standalone="no"?>
<svg
   width="24"
   height="24"
   viewBox="0 0 24 24"
   fill="none"
   version="1.1"
   id="svg1"
   sodipodi:docname="uv.svg"
   inkscape:version="1.4.2 (ebf0e940d0, 2025-05-08)"
   xmlns:inkscape="http://www.inkscape.org/namespaces/inkscape"
   xmlns:sodipodi="http://sodipodi.sourceforge.net/DTD/sodipodi-0.dtd"
   xmlns="http://www.w3.org/2000/svg"
   xmlns:svg="http://www.w3.org/2000/svg">
  <defs
     id="defs1" />
  <sodipodi:namedview
     id="namedview1"
     pagecolor="#ffffff"
     bordercolor="#000000"
     borderopacity="0.25"
     inkscape:showpageshadow="2"
     inkscape:pageopacity="0.0"
     inkscape:pagecheckerboard="0"
     inkscape:deskcolor="#d1d1d1"
     inkscape:zoom="17.463415"
     inkscape:cx="1.4601955"
     inkscape:cy="15.403631"
     inkscape:window-width="1728"
     inkscape:window-height="911"
     inkscape:window-x="0"
     inkscape:window-y="0"
     inkscape:window-maximized="1"
     inkscape:current-layer="svg1"
     showguides="false">
    <sodipodi:guide
       position="0,24"
       orientation="0,24"
       id="guide1"
       inkscape:locked="false" />
    <sodipodi:guide
       position="24,24"
       orientation="24,0"
       id="guide2"
       inkscape:locked="false" />
    <sodipodi:guide
       position="24,0"
       orientation="0,-24"
       id="guide3"
       inkscape:locked="false" />
    <sodipodi:guide
       position="0,0"
       orientation="-24,0"
       id="guide4"
       inkscape:locked="false" />
  </sodipodi:namedview>
  <path
     d="m 3.48712,4.3314742 0.03574,8.4771598 0.02859,6.781684 c 0.00392,0.936351 0.7662157,1.692221 1.7025748,1.688279 l 6.7816872,-0.02856 4.238606,-0.01788 0.430981,-0.0018 c 0.933553,-0.0039 1.688279,-0.777742 1.688279,-1.711338 v 0 h 0.776512 v 1.69511 l 1.34279,1.69e-4 -0.0715,-16.9542558 -7.79895,0.03288 0.03289,6.7567348 v 4.230679 h -0.678177 -0.711069 l 0.03289,-4.224957 -0.03289,-6.7567388 z"
     fill="#de5fe9"
     id="path1-5"
     style="stroke-width:0.423861;fill:#000000;fill-opacity:0.17308225"
     inkscape:label="path1-5" />
  <path
     d="m 3.4871198,3.5621489 0.03574,8.4771561 0.02859,6.781684 c 0.00392,0.936351 0.7662157,1.692221 1.7025748,1.688279 l 6.7816874,-0.02856 4.238606,-0.01788 0.430981,-0.0018 c 0.933553,-0.0039 1.688279,-0.777742 1.688279,-1.711338 v 0 h 0.776512 v 1.69511 l 1.34279,1.69e-4 -0.0715,-16.9542523 -7.79895,0.03288 0.03289,6.7567313 v 4.230679 h -0.678177 -0.711069 l 0.03289,-4.224957 -0.03289,-6.7567353 z"
     fill="#de5fe9"
     id="path1"
     style="stroke-width:0.423861" />
</svg>
