<?xml version="1.0" encoding="UTF-8" standalone="no"?>
<!-- Created with Inkscape (http://www.inkscape.org/) -->

<svg
   width="32"
   height="32"
   viewBox="0 0 32 32"
   version="1.1"
   id="svg1"
   inkscape:version="1.4.2 (ebf0e940d0, 2025-05-08)"
   sodipodi:docname="nixite.svg"
   xml:space="preserve"
   xmlns:inkscape="http://www.inkscape.org/namespaces/inkscape"
   xmlns:sodipodi="http://sodipodi.sourceforge.net/DTD/sodipodi-0.dtd"
   xmlns:xlink="http://www.w3.org/1999/xlink"
   xmlns="http://www.w3.org/2000/svg"
   xmlns:svg="http://www.w3.org/2000/svg"><sodipodi:namedview
     id="namedview1"
     pagecolor="#ffffff"
     bordercolor="#000000"
     borderopacity="0.25"
     inkscape:showpageshadow="2"
     inkscape:pageopacity="0.0"
     inkscape:pagecheckerboard="false"
     inkscape:deskcolor="#d1d1d1"
     inkscape:document-units="px"
     showgrid="true"
     inkscape:zoom="8.3654462"
     inkscape:cx="-3.8252592"
     inkscape:cy="30.960692"
     inkscape:window-width="1920"
     inkscape:window-height="1019"
     inkscape:window-x="0"
     inkscape:window-y="0"
     inkscape:window-maximized="1"
     inkscape:current-layer="g6"><sodipodi:guide
       position="0,32"
       orientation="0,32"
       id="guide1"
       inkscape:locked="false" /><sodipodi:guide
       position="32,32"
       orientation="32,0"
       id="guide2"
       inkscape:locked="false" /><sodipodi:guide
       position="32,0"
       orientation="0,-32"
       id="guide3"
       inkscape:locked="false" /><sodipodi:guide
       position="0,0"
       orientation="-32,0"
       id="guide4"
       inkscape:locked="false" /><inkscape:grid
       id="grid4"
       units="px"
       originx="0"
       originy="0"
       spacingx="1"
       spacingy="1"
       empcolor="#0099e5"
       empopacity="0.30196078"
       color="#0099e5"
       opacity="0.14901961"
       empspacing="4"
       enabled="true"
       visible="true" /></sodipodi:namedview><defs
     id="defs1"><linearGradient
       id="linearGradient6"
       inkscape:collect="always"><stop
         style="stop-color:#20ffb0;stop-opacity:1;"
         offset="0"
         id="stop6" /><stop
         style="stop-color:#daacff;stop-opacity:1;"
         offset="1"
         id="stop7" /></linearGradient><linearGradient
       inkscape:collect="always"
       xlink:href="#linearGradient6"
       id="linearGradient7"
       x1="0.2390787"
       y1="31.599886"
       x2="32"
       y2="0"
       gradientUnits="userSpaceOnUse" /></defs><g
     inkscape:label="Layer 1"
     inkscape:groupmode="layer"
     id="layer1"><rect
       style="fill:url(#linearGradient7)"
       id="rect4"
       width="32"
       height="32"
       x="0"
       y="0"
       ry="8" /><g
       id="g6"
       transform="matrix(1.5523577,0,0,1.5523577,-8.8377234,-10.39008)"
       style="fill:#ffffff;fill-opacity:1;stroke:#ffffff;stroke-width:1.00032;stroke-linejoin:round;stroke-dasharray:none;stroke-opacity:1"><g
         style="fill:#ffffff;fill-opacity:1"
         id="g1"
         transform="matrix(0.02214374,0,0,0.02214374,5.3710066,27.628993)"><path
           d="M 440,-183 V -457 L 200,-596 v 274 z m 80,0 240,-139 v -274 l -240,139 z m -80,92 -280,-161 q -19,-11 -29.5,-29 -10.5,-18 -10.5,-40 v -318 q 0,-22 10.5,-40 10.5,-18 29.5,-29 l 280,-161 q 19,-11 40,-11 21,0 40,11 l 280,161 q 19,11 29.5,29 10.5,18 10.5,40 v 318 q 0,22 -10.5,40 -10.5,18 -29.5,29 L 520,-91 q -19,11 -40,11 -21,0 -40,-11 z m 200,-528 77,-44 -237,-137 -78,45 z m -160,93 78,-45 -237,-137 -78,45 z"
           id="path1"
           style="fill:#ffffff;fill-opacity:1" /></g></g></g></svg>
